# xmcd
#
# Track frame offsets:
#	150
#	22703
#	42872
#	63909
#	87593
#	102521
#	124092
#	140033
#	156002
#	174598
#	190618
#	208742
#	223010
#
# Disc length: 3250 seconds
#
# Revision: 0
# Processed by: cddbd v1.5.2PL0 Copyright (c) Steve Scherf et al.
# Submitted via: dBpowerAMP V4.0
#
DISCID=b50cb00d
DTITLE=Alejandro Sanz - Viviendo Deprisa Edicion 2007
DYEAR=1900
DGENRE=Latin
TTITLE0=Los Dos cogidos de la Mano
TTITLE1=Pisando Fuerte
TTITLE2=Lo que fui es lo que soy
TTITLE3=Todo sigue igual
TTITLE4=Viviendo deprisa
TTITLE5=Se le apago la luz
TTITLE6=Duelo al amanecer
TTITLE7=Completamente Loca
TTITLE8=Toca para mi
TTITLE9=Es este Amor
TTITLE10=Toca Para Mi (demo)
TTITLE11=Viviendo deprisa (demo)
TTITLE12=se le apago la luz (ver. basico)
EXTD=
EXTT0=
EXTT1=
EXTT2=
EXTT3=
EXTT4=
EXTT5=
EXTT6=
EXTT7=
EXTT8=
EXTT9=
EXTT10=
EXTT11=
EXTT12=
PLAYORDER=
